<?xml version="1.0" encoding="utf-8"?>
<!-- Generator: Adobe Illustrator 16.0.0, SVG Export Plug-In . SVG Version: 6.00 Build 0)  -->
<!DOCTYPE svg PUBLIC "-//W3C//DTD SVG 1.1//EN" "http://www.w3.org/Graphics/SVG/1.1/DTD/svg11.dtd">
<svg version="1.1" id="图层_1" xmlns="http://www.w3.org/2000/svg" xmlns:xlink="http://www.w3.org/1999/xlink" x="0px" y="0px"
	 width="1920px" height="1080px" viewBox="0 0 1920 1080" style="enable-background:new 0 0 1920 1080;" xml:space="preserve">
<style type="text/css">
<![CDATA[
	.st0{fill:#E0463B;}
	.st1{fill:#B82B22;}
	.st2{fill:#239288;}
	.st3{fill:#282F39;}
	.st4{fill:#C62C21;}
	.st5{fill:#A02524;}
	.st6{fill:#A8AC8A;}
]]>
</style>
<g>
	<path class="st2" d="M1036.8,483.5l20.4-0.6c0,0-1-19.3-21.1-16.8L1036.8,483.5z"/>
	<path class="st2" d="M884.1,483.5l-20.4-0.6c0,0,1-19.3,21.1-16.8L884.1,483.5z"/>
	<path class="st5" d="M1002.4,714.9h-83.8c-19.3,0-34.9-15.6-34.9-34.9V399.7c0-19.3,15.6-34.9,34.9-34.9h83.8
		c19.3,0,34.9,15.6,34.9,34.9V680C1037.4,699.2,1021.7,714.9,1002.4,714.9z"/>
	<path class="st4" d="M998.4,703h-75.8c-17.7,0-32-14.3-32-32V411.4c0-17.7,14.3-32,32-32h75.8c17.7,0,32,14.3,32,32v259.5
		C1030.4,688.6,1016.1,703,998.4,703z"/>
	<path class="st1" d="M947.9,438.8h25.3c7,0,12.7,5.7,12.7,12.7v54.7c0,7-5.7,12.7-12.7,12.7h-25.3c-7,0-12.7-5.7-12.7-12.7v-54.7
		C935.2,444.5,940.9,438.8,947.9,438.8z"/>
	<g>
		<path class="st2" d="M916.6,710.8c-0.1,0-0.1,0-0.2,0c-21.7-1.1-24.9-10-25.2-11.1l5.9-1.7c0,0,0-0.1,0-0.1
			c0,0.1,2.6,5.9,19.6,6.7c1.7,0.1,3,1.5,2.9,3.2C919.6,709.5,918.2,710.8,916.6,710.8z"/>
	</g>
	<g>
		<path class="st2" d="M1004.5,710.5c-1.6,0-3-1.3-3.1-2.9c-0.1-1.7,1.2-3.1,2.9-3.2c17-0.9,19.6-6.7,19.6-6.7c0,0.1,0,0.1,0,0.1
			l5.9,1.7c-0.3,1-3.5,10-25.2,11.1C1004.6,710.5,1004.5,710.5,1004.5,710.5z"/>
	</g>
	<g>
		<g>
			<polygon class="st3" points="904.3,591.8 890.5,616.5 889.3,483.5 892.6,483.6 908.3,517.5 			"/>
			<polygon class="st3" points="1016.8,591.8 1030.6,616.5 1031.7,483.5 1028.5,483.6 1012.8,517.5 			"/>
		</g>
	</g>
	<path class="st3" d="M896.5,636.2c5.2-4.6,10.2-9.5,14.8-14.7c5.3-5.8,12.5-7.9,19.2-5.8c19.6,6.2,40.3,6.2,59.9,0
		c6.7-2.1,13.9,0,19.2,5.8c4.6,5.2,9.6,10.1,14.8,14.7c0.1-0.1-11.3,7.2-25.4,11.6c-13.9,4.9-30.5,6.9-38.7,6.4
		c-8.2,0.4-24.7-1.6-38.7-6.4C907.9,643.5,896.5,636.1,896.5,636.2z"/>
	<path class="st0" d="M1010.7,517.1l-48-11.6c-1.4-0.3-2.9-0.3-4.3,0l-48,11.6c-1.2,0.3-2,1.3-2.1,2.5l-4,72.3l7.4,28.9l27.1,6.1
		c14.3,3.2,29.2,3.2,43.5,0l27.1-6.1l7.4-28.9l-4-72.3C1012.7,518.3,1011.8,517.3,1010.7,517.1z"/>
	<path class="st6" d="M1002.4,364.8h-16.3c0,0.2,0,0.4,0,0.6c0,4.3,3.5,7.8,7.8,7.8h21.1c2.5,0,4.7-1.2,6.1-3
		C1015.8,366.8,1009.3,364.8,1002.4,364.8z"/>
	<path class="st6" d="M918.4,364.8h16.3c0,0.2,0,0.4,0,0.6c0,4.3-3.5,7.8-7.8,7.8h-21.1c-2.5,0-4.7-1.2-6.1-3
		C905.1,366.8,911.5,364.8,918.4,364.8z"/>
	<path class="st3" d="M960.5,462.4c-25.3-2.5-67.8,21.3-67.8,21.3l15.7,33.9l30.2-7.3c14.4-3.5,29.4-3.5,43.8,0l30.2,7.3l15.7-33.9
		C1028.3,483.6,985.8,459.9,960.5,462.4z"/>
</g>
</svg>
