<?xml version="1.0" encoding="utf-8"?>
<!-- Generator: Adobe Illustrator 16.0.0, SVG Export Plug-In . SVG Version: 6.00 Build 0)  -->
<!DOCTYPE svg PUBLIC "-//W3C//DTD SVG 1.1//EN" "http://www.w3.org/Graphics/SVG/1.1/DTD/svg11.dtd">
<svg version="1.1" id="图层_1" xmlns="http://www.w3.org/2000/svg" xmlns:xlink="http://www.w3.org/1999/xlink" x="0px" y="0px"
	 width="1920px" height="1080px" viewBox="0 0 1920 1080" style="enable-background:new 0 0 1920 1080;" xml:space="preserve">
<style type="text/css">
<![CDATA[
	.st0{fill:#AFC2CD;}
	.st1{fill:#818F9F;}
	.st2{fill:#BBBBBA;}
	.st3{fill:#F08C57;}
	.st4{fill:#282F39;}
	.st5{fill:#C1D6E3;}
	.st6{fill:#C6DBE8;}
	.st7{fill:#99A9BA;}
]]>
</style>
<g>
	<path class="st7" d="M1009.6,736.2h-98.3c-23.6,0-42.7-19.1-42.7-42.7V385.2c0-23.6,19.1-42.7,42.7-42.7h98.3
		c23.6,0,42.7,19.1,42.7,42.7v308.2C1052.3,717.1,1033.2,736.2,1009.6,736.2z"/>
	<path class="st0" d="M1004,727.8h-87.2c-22,0-39.8-17.8-39.8-39.8V390.8c0-22,17.8-39.8,39.8-39.8h87.2c22,0,39.8,17.8,39.8,39.8
		v297.2C1043.9,710,1026,727.8,1004,727.8z"/>
	<path class="st4" d="M960.4,394.5c0,0-61.9,1.9-76.9,23.9l15.5,25.3c0,0,42.7-12.2,61.4-10.3c18.7-1.9,61.4,10.3,61.4,10.3
		l15.5-25.3C1022.3,396.4,960.4,394.5,960.4,394.5z"/>
	<g>
		<g>
			<g>
				<polygon class="st4" points="880.9,424.4 880.9,487 896.7,487 896.7,447.3 				"/>
				<rect x="880.9" y="497.2" class="st4" width="15.8" height="71.4"/>
				<polygon class="st4" points="880.9,579.1 880.9,655.7 893.2,639.9 893.2,579.1 				"/>
			</g>
			<g>
				<polygon class="st4" points="1040,424.4 1040,487 1024.2,487 1024.2,447.3 				"/>
				<rect x="1024.2" y="497.2" class="st4" width="15.8" height="71.4"/>
				<polygon class="st4" points="1040,579.1 1040,655.7 1027.7,639.9 1027.7,579.1 				"/>
			</g>
		</g>
	</g>
	<path class="st4" d="M1024.2,667.3c-11.4,9.8-63.8,8.4-63.8,8.4s-52.3,1.4-63.8-8.4l-15.8,21.6c0,0,26.3,15.5,79.6,14.5
		c53.2,0.9,79.6-14.5,79.6-14.5L1024.2,667.3z"/>
	<path class="st5" d="M1021.8,443.8c-7.7-6.3-61.4-10.3-61.4-10.3s-53.7,4-61.4,10.3l-2.4,223.6c0,0,38.1,8.9,63.8,8.4
		c25.7,0.4,63.8-8.4,63.8-8.4L1021.8,443.8z"/>
	<path class="st7" d="M879.3,377.7c0,0,30.3-10.9,81.2-10.9c45,0,81.2,10.9,81.2,10.9c-5.4-15.5-20.2-26.7-37.6-26.7h-87.2
		C899.4,351,884.7,362.1,879.3,377.7z"/>
	<g>
		<path class="st2" d="M920,351h-3.1c-14,0-26.3,7.3-33.4,18.2C911.2,379.2,918.2,360.4,920,351z"/>
		<path class="st2" d="M1000.9,351h3.1c14,0,26.3,7.3,33.4,18.2C1009.7,379.2,1002.7,360.4,1000.9,351z"/>
	</g>
	<path class="st6" d="M960.3,714.3c-48.8,0-73.8-13.4-82.9-19.6c3.1,21.9,19.5,38.6,39.3,38.6h87.2c20.3,0,37-17.6,39.5-40.3
		C1034.7,698.2,1003.9,714.3,960.3,714.3z"/>
	<g>
		<path class="st3" d="M913.9,724.6l-20.9-13.4c-2.7-1.7-6.3-0.9-8.1,1.8c-0.2,0.3-0.3,0.5-0.4,0.8c6.9,11.3,18.1,18.8,30.8,19.4
			c0.1-0.2,0.3-0.3,0.4-0.5C917.4,730,916.6,726.4,913.9,724.6z"/>
		<path class="st3" d="M1007,724.6l20.9-13.4c2.7-1.7,6.3-0.9,8.1,1.8c0.2,0.3,0.3,0.5,0.4,0.8c-6.9,11.3-18.1,18.8-30.8,19.4
			c-0.1-0.2-0.3-0.3-0.4-0.5C1003.5,730,1004.3,726.4,1007,724.6z"/>
	</g>
	<g>
		<path class="st1" d="M1073.9,439.9h-24.1c-3.5,0-6.4-2.9-6.4-6.4v-7c0-4.1,3.3-7.4,7.4-7.4h12.8c8.4,0,15.3,6.8,15.3,15.3v0.5
			C1078.9,437.7,1076.7,439.9,1073.9,439.9z"/>
		<path class="st1" d="M846.9,439.9H871c3.5,0,6.4-2.9,6.4-6.4v-7c0-4.1-3.3-7.4-7.4-7.4h-12.8c-8.4,0-15.3,6.8-15.3,15.3v0.5
			C841.9,437.7,844.2,439.9,846.9,439.9z"/>
	</g>
</g>
</svg>
