<?xml version="1.0" encoding="utf-8"?>
<!-- Generator: Adobe Illustrator 16.0.0, SVG Export Plug-In . SVG Version: 6.00 Build 0)  -->
<!DOCTYPE svg PUBLIC "-//W3C//DTD SVG 1.1//EN" "http://www.w3.org/Graphics/SVG/1.1/DTD/svg11.dtd">
<svg version="1.1" id="图层_1" xmlns="http://www.w3.org/2000/svg" xmlns:xlink="http://www.w3.org/1999/xlink" x="0px" y="0px"
	 width="1920px" height="1080px" viewBox="0 0 1920 1080" style="enable-background:new 0 0 1920 1080;" xml:space="preserve">
<style type="text/css">
<![CDATA[
	.st0{fill:#B46528;}
	.st1{fill:#F0893B;}
	.st2{fill:#C9722D;}
	.st3{fill:#2F6376;}
	.st4{fill:#3D839C;}
	.st5{fill:#DD7C33;}
	.st6{fill:#DD9A47;}
]]>
</style>
<g>
	<g>
		<path class="st0" d="M885.3,493.8l-19.7-0.6c0,0,0.9-18.6,20.3-16.2L885.3,493.8z"/>
		<path class="st0" d="M1033.9,493.8l19.7-0.6c0,0-0.9-18.6-20.3-16.2L1033.9,493.8z"/>
	</g>
	<path class="st2" d="M1033.4,475.5c15.4-50.5-0.2-91-7.2-108.3c-7-17.3-66.6-15.6-66.6-15.6s-59.6-1.6-66.6,15.6
		c-7,17.3-22.6,57.7-7.2,108.3l-6.6,213.1c0,0-0.2,40.3,80.3,40.3c80.5,0,80.3-40.3,80.3-40.3L1033.4,475.5z"/>
	<path class="st1" d="M1029.8,400.4c0.2-19.6-15.1-35.8-34.7-36.6l-35.4-1.5l-35.4,1.5c-19.5,0.9-34.9,17.1-34.7,36.6l2.9,270.5
		c0,0-7.1,38.2,67.2,38.2c74.3,0,67.2-38.2,67.2-38.2L1029.8,400.4z"/>
	<path class="st5" d="M923.4,363.8c-10.7,0.7-20.1,6-26.3,14v10.7h26.3V363.8z"/>
	<path class="st5" d="M1025.7,383.4c-5.1-9.9-14.8-17.2-26.2-19.1v24.2h26.2V383.4z"/>
	<path class="st3" d="M959.7,462.1c0,0-50.8,4.1-66.4,17.3l14.8,41.5c0,0,11.1-11.5,51.6-13.2c40.5,1.6,51.6,13.2,51.6,13.2
		l14.8-41.5C1010.4,466.2,959.7,462.1,959.7,462.1z"/>
	<polygon class="st3" points="892.1,491.5 891.6,594.1 907.4,594.1 908.1,528.3 	"/>
	<polygon class="st3" points="1027.2,491.5 1027.7,594.1 1011.9,594.1 1011.2,528.3 	"/>
	<path class="st4" d="M1000.6,566.5h-81.8v-18.9c0-11.8,9.6-21.4,21.4-21.4h39c11.8,0,21.4,9.6,21.4,21.4V566.5z"/>
	<path class="st3" d="M1013.2,607.4c-4.3,7.7-53.5,9.9-53.5,9.9s-49.2-2.2-53.5-9.9h-14.3c2.3,54.5,0,88.6,67.9,82.9
		c67.9,5.7,65.5-28.5,67.9-82.9H1013.2z"/>
	<g>
		<path class="st6" d="M928.7,721.3h-15.4c-1.6,0-3-1.3-3-3v0c0-1.6,1.3-3,3-3h15.4c1.6,0,3,1.3,3,3v0
			C931.7,720,930.4,721.3,928.7,721.3z"/>
		<path class="st6" d="M1008.6,721.3h-15.4c-1.6,0-3-1.3-3-3v0c0-1.6,1.3-3,3-3h15.4c1.6,0,3,1.3,3,3v0
			C1011.6,720,1010.3,721.3,1008.6,721.3z"/>
	</g>
</g>
</svg>
