<?xml version="1.0" encoding="utf-8"?>
<!-- Generator: Adobe Illustrator 16.0.0, SVG Export Plug-In . SVG Version: 6.00 Build 0)  -->
<!DOCTYPE svg PUBLIC "-//W3C//DTD SVG 1.1//EN" "http://www.w3.org/Graphics/SVG/1.1/DTD/svg11.dtd">
<svg version="1.1" id="图层_1" xmlns="http://www.w3.org/2000/svg" xmlns:xlink="http://www.w3.org/1999/xlink" x="0px" y="0px"
	 width="1920px" height="1080px" viewBox="0 0 1920 1080" style="enable-background:new 0 0 1920 1080;" xml:space="preserve">
<style type="text/css">
<![CDATA[
	.st0{fill:#239288;}
	.st1{fill:#FCE6BE;}
	.st2{fill:#2F6376;}
	.st3{fill:#45AF9A;}
]]>
</style>
<g>
	<path class="st0" d="M959.6,351.5c0,0-75.4,3.2-79.4,29.6v328.3c0,0,5.3,18,79.4,18s79.4-18,79.4-18V381.1
		C1035,354.7,959.6,351.5,959.6,351.5z"/>
	<path class="st2" d="M933.1,721.6l-22.1-3.6c-1.7-0.3-3.3,0.9-3.5,2.6l-0.4,2.3c7.3,1.6,16.6,2.9,28.4,3.7l0.2-1.4
		C935.9,723.5,934.8,721.9,933.1,721.6z"/>
	<path class="st3" d="M959.6,359.1c0,0-65,3.1-68.4,28.4v315c0,0,4.6,17.3,68.4,17.3c63.8,0,68.4-17.3,68.4-17.3v-315
		C1024.6,362.2,959.6,359.1,959.6,359.1z"/>
	<g>
		<g>
			<g>
				<polygon class="st2" points="891.2,488.8 891.2,578.4 904.3,578.4 904.3,527.4 				"/>
				<polygon class="st2" points="891.2,589 904.3,589 904.3,634.2 891.2,652.3 				"/>
			</g>
			<g>
				<polygon class="st2" points="1028,488.8 1028,578.4 1014.9,578.4 1014.9,527.4 				"/>
				<polygon class="st2" points="1028,589 1014.9,589 1014.9,634.2 1028,652.3 				"/>
			</g>
		</g>
	</g>
	<path class="st2" d="M959.6,463c0,0-53.1,1.5-64.9,19.4l15.7,43.8c0,0,19.7-9.9,49.1-9.9c29.5,0,49.1,9.9,49.1,9.9l15.7-43.8
		C1012.8,464.5,959.6,463,959.6,463z"/>
	<path class="st2" d="M1007.2,652.3c0,0-11.6,9.2-47.6,9.2c-36,0-47.6-9.2-47.6-9.2l-17.7,34.5c0,25.8,130.5,25.8,130.5,0
		L1007.2,652.3z"/>
	<path class="st0" d="M959.6,351.5c0,0-75.4,3.2-79.4,29.6v12.4c29.6-14.3,79.4-16.5,79.4-16.5s49.8,2.2,79.4,16.5v-12.4
		C1035,354.7,959.6,351.5,959.6,351.5z"/>
	<g>
		<path class="st1" d="M880.2,381.1v12.4c7.2-3.5,15.5-6.2,24.1-8.4c3-2.3,5.9-4.5,8.2-6.2c3.6-2.7,5.5-7.1,5.2-11.6l-0.8-9.9
			C899,361.7,882.1,368.9,880.2,381.1z"/>
		<path class="st1" d="M1039,381.1v12.4c-7.2-3.5-15.5-6.2-24.1-8.4c-3-2.3-5.9-4.5-8.2-6.2c-3.6-2.7-5.5-7.1-5.2-11.6l0.8-9.9
			C1020.2,361.7,1037.1,368.9,1039,381.1z"/>
	</g>
	<path class="st2" d="M1011.8,720.5c-0.3-1.7-1.9-2.8-3.5-2.6l-22.2,3.6c-1.7,0.3-2.8,1.9-2.6,3.5l0.2,1.4
		c11.8-0.8,21.1-2.1,28.4-3.7L1011.8,720.5z"/>
	<path class="st0" d="M881.2,500.1l-13.3-0.4c0,0,0.6-12.5,13.7-10.9L881.2,500.1z"/>
	<path class="st0" d="M1039.4,500.1l13.3-0.4c0,0-0.6-12.5-13.7-10.9L1039.4,500.1z"/>
</g>
</svg>
