<svg version="1.1" xmlns="http://www.w3.org/2000/svg" xmlns:xlink="http://www.w3.org/1999/xlink" width="1962.24609375" height="1043"><defs/><g><g transform="translate(-190,-303) scale(1,1)"><rect fill="#C0C0C0" stroke="none" x="207" y="325" width="262.24609375" height="56" opacity="0.2"/></g><g transform="translate(-190,-303) scale(1,1)"><rect fill="#ffffff" stroke="none" x="200" y="318" width="262.24609375" height="56"/></g><g transform="translate(-190,-303) scale(1,1)"><path fill="none" stroke="#000000" d="M 200 318 L 462.24609375 318 L 462.24609375 374 L 200 374 L 200 318 Z Z" stroke-miterlimit="10"/></g><g transform="translate(-190,-303) scale(1,1)"><g><path fill="none" stroke="none"/><text fill="#000000" stroke="none" font-family="Arial" font-size="13px" font-style="italic" font-weight="bold" text-decoration="none" x="292.4658203125" y="337.5">FlagwindMap</text></g></g><g transform="translate(-190,-303) scale(1,1)"><rect fill="#C0C0C0" stroke="none" x="640" y="320" width="262.24609375" height="56" opacity="0.2"/></g><g transform="translate(-190,-303) scale(1,1)"><rect fill="#ffffff" stroke="none" x="633" y="313" width="262.24609375" height="56"/></g><g transform="translate(-190,-303) scale(1,1)"><path fill="none" stroke="#000000" d="M 633 313 L 895.24609375 313 L 895.24609375 369 L 633 369 L 633 313 Z Z" stroke-miterlimit="10"/></g><g transform="translate(-190,-303) scale(1,1)"><g><path fill="none" stroke="none"/><text fill="#000000" stroke="none" font-family="Arial" font-size="13px" font-style="normal" font-weight="bold" text-decoration="none" x="699.449951171875" y="332.5">FlagwindFeatureLayer</text></g></g><g transform="translate(-190,-303) scale(1,1)"><rect fill="#C0C0C0" stroke="none" x="207" y="578" width="262.24609375" height="56" opacity="0.2"/></g><g transform="translate(-190,-303) scale(1,1)"><rect fill="#ffffff" stroke="none" x="200" y="571" width="262.24609375" height="56"/></g><g transform="translate(-190,-303) scale(1,1)"><path fill="none" stroke="#000000" d="M 200 571 L 462.24609375 571 L 462.24609375 627 L 200 627 L 200 571 Z Z" stroke-miterlimit="10"/></g><g transform="translate(-190,-303) scale(1,1)"><g><path fill="none" stroke="none"/><text fill="#000000" stroke="none" font-family="Arial" font-size="13px" font-style="italic" font-weight="bold" text-decoration="none" x="274.8193359375" y="590.5">FlagwindTiledLayer</text></g></g><g transform="translate(-190,-303) scale(1,1)"><rect fill="#C0C0C0" stroke="none" x="1008" y="320" width="262.24609375" height="56" opacity="0.2"/></g><g transform="translate(-190,-303) scale(1,1)"><rect fill="#ffffff" stroke="none" x="1001" y="313" width="262.24609375" height="56"/></g><g transform="translate(-190,-303) scale(1,1)"><path fill="none" stroke="#000000" d="M 1001 313 L 1263.24609375 313 L 1263.24609375 369 L 1001 369 L 1001 313 Z Z" stroke-miterlimit="10"/></g><g transform="translate(-190,-303) scale(1,1)"><g><path fill="none" stroke="none"/><text fill="#000000" stroke="none" font-family="Arial" font-size="13px" font-style="normal" font-weight="bold" text-decoration="none" x="1063.476318359375" y="332.5">FlagwindBusinessLayer</text></g></g><g transform="translate(-190,-303) scale(1,1)"><path fill="#C0C0C0" stroke="none" d="M 363.623046875 1183.5 C 363.623046875 1174.9395856 370.562632475 1168 379.123046875 1168 C 387.683461275 1168 394.623046875 1174.9395856 394.623046875 1183.5 C 394.623046875 1192.0604144 387.683461275 1199 379.123046875 1199 C 370.562632475 1199 363.623046875 1192.0604144 363.623046875 1183.5 Z" opacity="0.2"/></g><g transform="translate(-190,-303) scale(1,1)"><path fill="#ffffff" stroke="none" d="M 356.623046875 1176.5 C 356.623046875 1167.9395856 363.562632475 1161 372.123046875 1161 C 380.683461275 1161 387.623046875 1167.9395856 387.623046875 1176.5 C 387.623046875 1185.0604144 380.683461275 1192 372.123046875 1192 C 363.562632475 1192 356.623046875 1185.0604144 356.623046875 1176.5 Z"/></g><g transform="translate(-190,-303) scale(1,1)"><path fill="none" stroke="#000000" d="M 356.623046875 1176.5 C 356.623046875 1167.9395856 363.562632475 1161 372.123046875 1161 C 380.683461275 1161 387.623046875 1167.9395856 387.623046875 1176.5 C 387.623046875 1185.0604144 380.683461275 1192 372.123046875 1192 C 363.562632475 1192 356.623046875 1185.0604144 356.623046875 1176.5 Z" stroke-miterlimit="10"/></g><g transform="translate(-190,-303) scale(1,1)"><g><path fill="none" stroke="none"/><text fill="#000000" stroke="none" font-family="Arial" font-size="13px" font-style="normal" font-weight="bold" text-decoration="none" x="316.844482421875" y="1211.5">IFlagwindEditLayer</text></g></g><g transform="translate(-190,-303) scale(1,1)"><rect fill="#C0C0C0" stroke="none" x="1495" y="1287" width="262.24609375" height="56" opacity="0.2"/></g><g transform="translate(-190,-303) scale(1,1)"><rect fill="#ffffff" stroke="none" x="1488" y="1280" width="262.24609375" height="56"/></g><g transform="translate(-190,-303) scale(1,1)"><path fill="none" stroke="#000000" d="M 1488 1280 L 1750.24609375 1280 L 1750.24609375 1336 L 1488 1336 L 1488 1280 Z Z" stroke-miterlimit="10"/></g><g transform="translate(-190,-303) scale(1,1)"><g><path fill="none" stroke="none"/><text fill="#000000" stroke="none" font-family="Arial" font-size="13px" font-style="normal" font-weight="bold" text-decoration="none" x="1577.098388671875" y="1299.5">TrackSegment</text></g></g><g transform="translate(-190,-303) scale(1,1)"><rect fill="#C0C0C0" stroke="none" x="1887" y="1287" width="262.24609375" height="56" opacity="0.2"/></g><g transform="translate(-190,-303) scale(1,1)"><rect fill="#ffffff" stroke="none" x="1880" y="1280" width="262.24609375" height="56"/></g><g transform="translate(-190,-303) scale(1,1)"><path fill="none" stroke="#000000" d="M 1880 1280 L 2142.24609375 1280 L 2142.24609375 1336 L 1880 1336 L 1880 1280 Z Z" stroke-miterlimit="10"/></g><g transform="translate(-190,-303) scale(1,1)"><g><path fill="none" stroke="none"/><text fill="#000000" stroke="none" font-family="Arial" font-size="13px" font-style="normal" font-weight="bold" text-decoration="none" x="1982.8251953125" y="1299.5">TrackLine</text></g></g><g transform="translate(-190,-303) scale(1,1)"><rect fill="#C0C0C0" stroke="none" x="1152" y="896" width="262.24609375" height="56" opacity="0.2"/></g><g transform="translate(-190,-303) scale(1,1)"><rect fill="#ffffff" stroke="none" x="1145" y="889" width="262.24609375" height="56"/></g><g transform="translate(-190,-303) scale(1,1)"><path fill="none" stroke="#000000" d="M 1145 889 L 1407.24609375 889 L 1407.24609375 945 L 1145 945 L 1145 889 Z Z" stroke-miterlimit="10"/></g><g transform="translate(-190,-303) scale(1,1)"><g><path fill="none" stroke="none"/><text fill="#000000" stroke="none" font-family="Arial" font-size="13px" font-style="normal" font-weight="bold" text-decoration="none" x="1215.785400390625" y="908.5">FlagwindGroupLayer</text></g></g><g transform="translate(-190,-303) scale(1,1)"><rect fill="#C0C0C0" stroke="none" x="1887" y="1015" width="262.24609375" height="56" opacity="0.2"/></g><g transform="translate(-190,-303) scale(1,1)"><rect fill="#ffffff" stroke="none" x="1880" y="1008" width="262.24609375" height="56"/></g><g transform="translate(-190,-303) scale(1,1)"><path fill="none" stroke="#000000" d="M 1880 1008 L 2142.24609375 1008 L 2142.24609375 1064 L 1880 1064 L 1880 1008 Z Z" stroke-miterlimit="10"/></g><g transform="translate(-190,-303) scale(1,1)"><g><path fill="none" stroke="none"/><text fill="#000000" stroke="none" font-family="Arial" font-size="13px" font-style="normal" font-weight="bold" text-decoration="none" x="1951.505859375" y="1027.5">FlagwindRouteLayer</text></g></g><g transform="translate(-190,-303) scale(1,1)"><rect fill="#C0C0C0" stroke="none" x="1495" y="1016" width="262.24609375" height="56" opacity="0.2"/></g><g transform="translate(-190,-303) scale(1,1)"><rect fill="#ffffff" stroke="none" x="1488" y="1009" width="262.24609375" height="56"/></g><g transform="translate(-190,-303) scale(1,1)"><path fill="none" stroke="#000000" d="M 1488 1009 L 1750.24609375 1009 L 1750.24609375 1065 L 1488 1065 L 1488 1009 Z Z" stroke-miterlimit="10"/></g><g transform="translate(-190,-303) scale(1,1)"><g><path fill="none" stroke="none"/><text fill="#000000" stroke="none" font-family="Arial" font-size="13px" font-style="normal" font-weight="bold" text-decoration="none" x="1560.842041015625" y="1028.5">FlagwindTrackLayer</text></g></g><g transform="translate(-190,-303) scale(1,1)"><path fill="#C0C0C0" stroke="none" d="M 980.3154296875 599.5 C 980.3154296875 590.9395856 987.2550152875 584 995.8154296875 584 C 1004.3758440875 584 1011.3154296875 590.9395856 1011.3154296875 599.5 C 1011.3154296875 608.0604144 1004.3758440875 615 995.8154296875 615 C 987.2550152875 615 980.3154296875 608.0604144 980.3154296875 599.5 Z" opacity="0.2"/></g><g transform="translate(-190,-303) scale(1,1)"><path fill="#0cda0c" stroke="none" d="M 973.3154296875 592.5 C 973.3154296875 583.9395856 980.2550152875 577 988.8154296875 577 C 997.3758440875 577 1004.3154296875 583.9395856 1004.3154296875 592.5 C 1004.3154296875 601.0604144 997.3758440875 608 988.8154296875 608 C 980.2550152875 608 973.3154296875 601.0604144 973.3154296875 592.5 Z"/></g><g transform="translate(-190,-303) scale(1,1)"><path fill="none" stroke="#000000" d="M 973.3154296875 592.5 C 973.3154296875 583.9395856 980.2550152875 577 988.8154296875 577 C 997.3758440875 577 1004.3154296875 583.9395856 1004.3154296875 592.5 C 1004.3154296875 601.0604144 997.3758440875 608 988.8154296875 608 C 980.2550152875 608 973.3154296875 601.0604144 973.3154296875 592.5 Z" stroke-miterlimit="10"/></g><g transform="translate(-190,-303) scale(1,1)"><g><path fill="none" stroke="none"/><text fill="#000000" stroke="none" font-family="Arial" font-size="13px" font-style="normal" font-weight="bold" text-decoration="none" x="944.7373046875" y="627.5">IFlagwindLayer</text></g></g><g transform="translate(-190,-303) scale(1,1)"><path fill="#C0C0C0" stroke="none" d="M 751.818603515625 927.5 C 751.818603515625 918.9395856 758.758189115625 912 767.318603515625 912 C 775.879017915625 912 782.818603515625 918.9395856 782.818603515625 927.5 C 782.818603515625 936.0604144 775.879017915625 943 767.318603515625 943 C 758.758189115625 943 751.818603515625 936.0604144 751.818603515625 927.5 Z" opacity="0.2"/></g><g transform="translate(-190,-303) scale(1,1)"><path fill="#00a9ff" stroke="none" d="M 744.818603515625 920.5 C 744.818603515625 911.9395856 751.758189115625 905 760.318603515625 905 C 768.879017915625 905 775.818603515625 911.9395856 775.818603515625 920.5 C 775.818603515625 929.0604144 768.879017915625 936 760.318603515625 936 C 751.758189115625 936 744.818603515625 929.0604144 744.818603515625 920.5 Z"/></g><g transform="translate(-190,-303) scale(1,1)"><path fill="none" stroke="#000000" d="M 744.818603515625 920.5 C 744.818603515625 911.9395856 751.758189115625 905 760.318603515625 905 C 768.879017915625 905 775.818603515625 911.9395856 775.818603515625 920.5 C 775.818603515625 929.0604144 768.879017915625 936 760.318603515625 936 C 751.758189115625 936 744.818603515625 929.0604144 744.818603515625 920.5 Z" stroke-miterlimit="10"/></g><g transform="translate(-190,-303) scale(1,1)"><g><path fill="none" stroke="none"/><text fill="#000000" stroke="none" font-family="Arial" font-size="13px" font-style="normal" font-weight="bold" text-decoration="none" x="698.171875" y="955.5">IFlagwindSingleLayer</text></g></g><g transform="translate(-190,-303) scale(1,1)"><path fill="#C0C0C0" stroke="none" d="M 1611.121337890625 599.5 C 1611.121337890625 590.9395856 1618.060923490625 584 1626.621337890625 584 C 1635.181752290625 584 1642.121337890625 590.9395856 1642.121337890625 599.5 C 1642.121337890625 608.0604144 1635.181752290625 615 1626.621337890625 615 C 1618.060923490625 615 1611.121337890625 608.0604144 1611.121337890625 599.5 Z" opacity="0.2"/></g><g transform="translate(-190,-303) scale(1,1)"><path fill="#00a9ff" stroke="none" d="M 1604.121337890625 592.5 C 1604.121337890625 583.9395856 1611.060923490625 577 1619.621337890625 577 C 1628.181752290625 577 1635.121337890625 583.9395856 1635.121337890625 592.5 C 1635.121337890625 601.0604144 1628.181752290625 608 1619.621337890625 608 C 1611.060923490625 608 1604.121337890625 601.0604144 1604.121337890625 592.5 Z"/></g><g transform="translate(-190,-303) scale(1,1)"><path fill="none" stroke="#000000" d="M 1604.121337890625 592.5 C 1604.121337890625 583.9395856 1611.060923490625 577 1619.621337890625 577 C 1628.181752290625 577 1635.121337890625 583.9395856 1635.121337890625 592.5 C 1635.121337890625 601.0604144 1628.181752290625 608 1619.621337890625 608 C 1611.060923490625 608 1604.121337890625 601.0604144 1604.121337890625 592.5 Z" stroke-miterlimit="10"/></g><g transform="translate(-190,-303) scale(1,1)"><g><path fill="none" stroke="none"/><text fill="#000000" stroke="none" font-family="Arial" font-size="13px" font-style="normal" font-weight="bold" text-decoration="none" x="1549.530517578125" y="627.5">IFlagwindCombineLayer</text></g></g><g transform="translate(-190,-303) scale(1,1)"><path fill="none" stroke="#000000" d="M 780 904 L 968 634" stroke-miterlimit="10"/></g><g transform="translate(-190,-303) scale(1,1)"><path fill="#FFFFFF" stroke="none" d="M 963.294818522275 655.4909578023334 L 968 634 L 949.4765322741634 645.8693362666113"/></g><g transform="translate(-190,-303) scale(1,1)"><path fill="none" stroke="#000000" d="M 963.294818522275 655.4909578023334 L 968 634 L 949.4765322741634 645.8693362666113 L 963.294818522275 655.4909578023334" stroke-miterlimit="10"/></g><g transform="translate(-190,-303) scale(1,1)"><path fill="none" stroke="#000000" d="M 416 1160 L 716 962" stroke-miterlimit="10"/></g><g transform="translate(-190,-303) scale(1,1)"><path fill="#FFFFFF" stroke="none" d="M 703.6738320494596 980.222666754761 L 716 962 L 694.3987118225344 966.1694542897228"/></g><g transform="translate(-190,-303) scale(1,1)"><path fill="none" stroke="#000000" d="M 703.6738320494596 980.222666754761 L 716 962 L 694.3987118225344 966.1694542897228 L 703.6738320494596 980.222666754761" stroke-miterlimit="10"/></g><g transform="translate(-190,-303) scale(1,1)"><path fill="#C0C0C0" stroke="none" d="M 322.623046875 998.5 C 322.623046875 989.9395856 329.562632475 983 338.123046875 983 C 346.683461275 983 353.623046875 989.9395856 353.623046875 998.5 C 353.623046875 1007.0604144 346.683461275 1014 338.123046875 1014 C 329.562632475 1014 322.623046875 1007.0604144 322.623046875 998.5 Z" opacity="0.2"/></g><g transform="translate(-190,-303) scale(1,1)"><path fill="#ffffff" stroke="none" d="M 315.623046875 991.5 C 315.623046875 982.9395856 322.562632475 976 331.123046875 976 C 339.683461275 976 346.623046875 982.9395856 346.623046875 991.5 C 346.623046875 1000.0604144 339.683461275 1007 331.123046875 1007 C 322.562632475 1007 315.623046875 1000.0604144 315.623046875 991.5 Z"/></g><g transform="translate(-190,-303) scale(1,1)"><path fill="none" stroke="#000000" d="M 315.623046875 991.5 C 315.623046875 982.9395856 322.562632475 976 331.123046875 976 C 339.683461275 976 346.623046875 982.9395856 346.623046875 991.5 C 346.623046875 1000.0604144 339.683461275 1007 331.123046875 1007 C 322.562632475 1007 315.623046875 1000.0604144 315.623046875 991.5 Z" stroke-miterlimit="10"/></g><g transform="translate(-190,-303) scale(1,1)"><g><path fill="none" stroke="none"/><text fill="#000000" stroke="none" font-family="Arial" font-size="13px" font-style="normal" font-weight="bold" text-decoration="none" x="288.13671875" y="1026.5">IFlagwindDraw</text></g></g><g transform="translate(-190,-303) scale(1,1)"><path fill="#C0C0C0" stroke="none" d="M 1145.623046875 1183.5 C 1145.623046875 1174.9395856 1152.562632475 1168 1161.123046875 1168 C 1169.683461275 1168 1176.623046875 1174.9395856 1176.623046875 1183.5 C 1176.623046875 1192.0604144 1169.683461275 1199 1161.123046875 1199 C 1152.562632475 1199 1145.623046875 1192.0604144 1145.623046875 1183.5 Z" opacity="0.2"/></g><g transform="translate(-190,-303) scale(1,1)"><path fill="#ffffff" stroke="none" d="M 1138.623046875 1176.5 C 1138.623046875 1167.9395856 1145.562632475 1161 1154.123046875 1161 C 1162.683461275 1161 1169.623046875 1167.9395856 1169.623046875 1176.5 C 1169.623046875 1185.0604144 1162.683461275 1192 1154.123046875 1192 C 1145.562632475 1192 1138.623046875 1185.0604144 1138.623046875 1176.5 Z"/></g><g transform="translate(-190,-303) scale(1,1)"><path fill="none" stroke="#000000" d="M 1138.623046875 1176.5 C 1138.623046875 1167.9395856 1145.562632475 1161 1154.123046875 1161 C 1162.683461275 1161 1169.623046875 1167.9395856 1169.623046875 1176.5 C 1169.623046875 1185.0604144 1162.683461275 1192 1154.123046875 1192 C 1145.562632475 1192 1138.623046875 1185.0604144 1138.623046875 1176.5 Z" stroke-miterlimit="10"/></g><g transform="translate(-190,-303) scale(1,1)"><g><path fill="none" stroke="none"/><text fill="#000000" stroke="none" font-family="Arial" font-size="13px" font-style="normal" font-weight="bold" text-decoration="none" x="1085.469970703125" y="1211.5">IFlagwindLocationLayer</text></g></g><g transform="translate(-190,-303) scale(1,1)"><path fill="none" stroke="#000000" d="M 1109 1160 L 805 962" stroke-miterlimit="10"/></g><g transform="translate(-190,-303) scale(1,1)"><path fill="#FFFFFF" stroke="none" d="M 826.6262122251579 966.0381858293586 L 805 962 L 817.4366127321578 980.1474698994194"/></g><g transform="translate(-190,-303) scale(1,1)"><path fill="none" stroke="#000000" d="M 826.6262122251579 966.0381858293586 L 805 962 L 817.4366127321578 980.1474698994194 L 826.6262122251579 966.0381858293586" stroke-miterlimit="10"/></g><g transform="translate(-190,-303) scale(1,1)"><path fill="none" stroke="#000000" d="M 1751 1037 L 1879 1036" stroke-miterlimit="10"/></g><g transform="translate(-190,-303) scale(1,1)"><path fill="none" stroke="#000000" d="M 1868.870521122291 1040.288782772075 L 1879 1036 L 1868.8047494145158 1031.8700041768564" stroke-miterlimit="10"/></g><g transform="translate(-190,-303) scale(1,1)"><rect fill="#C0C0C0" stroke="none" x="207" y="831" width="262.24609375" height="56" opacity="0.2"/></g><g transform="translate(-190,-303) scale(1,1)"><rect fill="#ffffff" stroke="none" x="200" y="824" width="262.24609375" height="56"/></g><g transform="translate(-190,-303) scale(1,1)"><path fill="none" stroke="#000000" d="M 200 824 L 462.24609375 824 L 462.24609375 880 L 200 880 L 200 824 Z Z" stroke-miterlimit="10"/></g><g transform="translate(-190,-303) scale(1,1)"><g><path fill="none" stroke="none"/><text fill="#000000" stroke="none" font-family="Arial" font-size="16px" font-style="normal" font-weight="bold" text-decoration="none" x="280.291015625" y="846.5">EsriTiledLayer</text></g></g><g transform="translate(-190,-303) scale(1,1)"><path fill="none" stroke="#000000" d="M 331 823 L 331 628" stroke-miterlimit="10"/></g><g transform="translate(-190,-303) scale(1,1)"><path fill="#FFFFFF" stroke="none" d="M 339.419035512032 648.3253497152483 L 331 628 L 322.580964487968 648.3253497152483"/></g><g transform="translate(-190,-303) scale(1,1)"><path fill="none" stroke="#000000" d="M 339.419035512032 648.3253497152483 L 331 628 L 322.580964487968 648.3253497152483 L 339.419035512032 648.3253497152483" stroke-miterlimit="10"/></g><g transform="translate(-190,-303) scale(1,1)"><path fill="#C0C0C0" stroke="none" d="M 754.623046875 1183.5 C 754.623046875 1174.9395856 761.562632475 1168 770.123046875 1168 C 778.683461275 1168 785.623046875 1174.9395856 785.623046875 1183.5 C 785.623046875 1192.0604144 778.683461275 1199 770.123046875 1199 C 761.562632475 1199 754.623046875 1192.0604144 754.623046875 1183.5 Z" opacity="0.2"/></g><g transform="translate(-190,-303) scale(1,1)"><path fill="#ffffff" stroke="none" d="M 747.623046875 1176.5 C 747.623046875 1167.9395856 754.562632475 1161 763.123046875 1161 C 771.683461275 1161 778.623046875 1167.9395856 778.623046875 1176.5 C 778.623046875 1185.0604144 771.683461275 1192 763.123046875 1192 C 754.562632475 1192 747.623046875 1185.0604144 747.623046875 1176.5 Z"/></g><g transform="translate(-190,-303) scale(1,1)"><path fill="none" stroke="#000000" d="M 747.623046875 1176.5 C 747.623046875 1167.9395856 754.562632475 1161 763.123046875 1161 C 771.683461275 1161 778.623046875 1167.9395856 778.623046875 1176.5 C 778.623046875 1185.0604144 771.683461275 1192 763.123046875 1192 C 754.562632475 1192 747.623046875 1185.0604144 747.623046875 1176.5 Z" stroke-miterlimit="10"/></g><g transform="translate(-190,-303) scale(1,1)"><g><path fill="none" stroke="none"/><text fill="#000000" stroke="none" font-family="Arial" font-size="13px" font-style="normal" font-weight="bold" text-decoration="none" x="692.67041015625" y="1211.5">IFlagwindHeatmapLayer</text></g></g><g transform="translate(-190,-303) scale(1,1)"><path fill="none" stroke="#000000" d="M 763 1160 L 760 962" stroke-miterlimit="10"/></g><g transform="translate(-190,-303) scale(1,1)"><path fill="#FFFFFF" stroke="none" d="M 768.725993807412 982.1954705831037 L 760 962 L 751.8898551952468 982.4505635923789"/></g><g transform="translate(-190,-303) scale(1,1)"><path fill="none" stroke="#000000" d="M 768.725993807412 982.1954705831037 L 760 962 L 751.8898551952468 982.4505635923789 L 768.725993807412 982.1954705831037" stroke-miterlimit="10"/></g><g transform="translate(-190,-303) scale(1,1)"><path fill="none" stroke="#000000" d="M 331 570 L 331 375" stroke-miterlimit="10"/></g><g transform="translate(-190,-303) scale(1,1)"><path fill="#000000" stroke="none" d="M 335.209517756016 385.16267485762415 L 331 375 L 326.790482243984 385.16267485762415 L 331 397"/></g><g transform="translate(-190,-303) scale(1,1)"><path fill="none" stroke="#000000" d="M 335.209517756016 385.16267485762415 L 331 375 L 326.790482243984 385.16267485762415 L 331 397 L 335.209517756016 385.16267485762415" stroke-miterlimit="10"/></g><g transform="translate(-190,-303) scale(1,1)"><g><path fill="none" stroke="none"/><text fill="#000000" stroke="none" font-family="Arial" font-size="13px" font-style="normal" font-weight="normal" text-decoration="none" x="278.5" y="550.5">+baseLayers</text></g></g><g transform="translate(-190,-303) scale(1,1)"><g><path fill="none" stroke="none"/><text fill="#000000" stroke="none" font-family="Arial" font-size="13px" font-style="normal" font-weight="normal" text-decoration="none" x="340.470458984375" y="554.5">*</text></g></g><g transform="translate(-190,-303) scale(1,1)"><g><path fill="none" stroke="none"/><text fill="#000000" stroke="none" font-family="Arial" font-size="13px" font-style="normal" font-weight="normal" text-decoration="none" x="339.5" y="402.5">1</text></g></g><g transform="translate(-190,-303) scale(1,1)"><path fill="none" stroke="#000000" d="M 632 343 L 463 344" stroke-miterlimit="10"/></g><g transform="translate(-190,-303) scale(1,1)"><path fill="#000000" stroke="none" d="M 473.13758899750377 339.73042281745717 L 463 344 L 473.18740490359244 348.1493109464417 L 484.999614869537 343.8698247640856"/></g><g transform="translate(-190,-303) scale(1,1)"><path fill="none" stroke="#000000" d="M 473.13758899750377 339.73042281745717 L 463 344 L 473.18740490359244 348.1493109464417 L 484.999614869537 343.8698247640856 L 473.13758899750377 339.73042281745717" stroke-miterlimit="10"/></g><g transform="translate(-190,-303) scale(1,1)"><g><path fill="none" stroke="none"/><text fill="#000000" stroke="none" font-family="Arial" font-size="13px" font-style="normal" font-weight="normal" text-decoration="none" x="503.5" y="363.5">+featureLayers</text></g></g><g transform="translate(-190,-303) scale(1,1)"><path fill="none" stroke="#000000" d="M 368 628 L 744.818603515625 913.4350717905405" stroke-miterlimit="10"/></g><g transform="translate(-190,-303) scale(1,1)"><path fill="none" stroke="#000000" d="M 764 370 L 760 905" stroke-miterlimit="10"/></g><g transform="translate(-190,-303) scale(1,1)"><path fill="none" stroke="#000000" d="M 1000 341 L 896 341" stroke-miterlimit="10"/></g><g transform="translate(-190,-303) scale(1,1)"><path fill="#FFFFFF" stroke="none" d="M 916.3253497152483 332.580964487968 L 896 341 L 916.3253497152483 349.419035512032"/></g><g transform="translate(-190,-303) scale(1,1)"><path fill="none" stroke="#000000" d="M 916.3253497152483 332.580964487968 L 896 341 L 916.3253497152483 349.419035512032 L 916.3253497152483 332.580964487968" stroke-miterlimit="10"/></g><g transform="translate(-190,-303) scale(1,1)"><path fill="none" stroke="#000000" d="M 1144 921 L 775.818603515625 922.3836251872859" stroke-miterlimit="10"/></g><g transform="translate(-190,-303) scale(1,1)"><path fill="none" stroke="#000000" d="M 1539 605 L 1042 605" stroke-miterlimit="10"/></g><g transform="translate(-190,-303) scale(1,1)"><path fill="#FFFFFF" stroke="none" d="M 1062.3253497152482 596.580964487968 L 1042 605 L 1062.3253497152482 613.419035512032"/></g><g transform="translate(-190,-303) scale(1,1)"><path fill="none" stroke="#000000" d="M 1062.3253497152482 596.580964487968 L 1042 605 L 1062.3253497152482 613.419035512032 L 1062.3253497152482 596.580964487968" stroke-miterlimit="10"/></g><g transform="translate(-190,-303) scale(1,1)"><path fill="none" stroke="#000000" d="M 1619 1008 L 1619 608" stroke-miterlimit="10"/></g><g transform="translate(-190,-303) scale(1,1)"><path fill="none" stroke="#000000" d="M 2011 1279 L 2011 1065" stroke-miterlimit="10"/></g><g transform="translate(-190,-303) scale(1,1)"><path fill="#FFFFFF" stroke="none" d="M 2015.2095177560159 1075.162674857624 L 2011 1065 L 2006.7904822439841 1075.162674857624 L 2011 1087"/></g><g transform="translate(-190,-303) scale(1,1)"><path fill="none" stroke="#000000" d="M 2015.2095177560159 1075.162674857624 L 2011 1065 L 2006.7904822439841 1075.162674857624 L 2011 1087 L 2015.2095177560159 1075.162674857624" stroke-miterlimit="10"/></g><g transform="translate(-190,-303) scale(1,1)"><g><path fill="none" stroke="none"/><text fill="#000000" stroke="none" font-family="Arial" font-size="13px" font-style="normal" font-weight="normal" text-decoration="none" x="1962.5" y="1259.5">+trackLines</text></g></g><g transform="translate(-190,-303) scale(1,1)"><g><path fill="none" stroke="none"/><text fill="#000000" stroke="none" font-family="Arial" font-size="13px" font-style="normal" font-weight="normal" text-decoration="none" x="2020.470458984375" y="1263.5">*</text></g></g><g transform="translate(-190,-303) scale(1,1)"><g><path fill="none" stroke="none"/><text fill="#000000" stroke="none" font-family="Arial" font-size="13px" font-style="normal" font-weight="normal" text-decoration="none" x="2019.5" y="1092.5">1</text></g></g><g transform="translate(-190,-303) scale(1,1)"><path fill="none" stroke="#000000" d="M 1751 1308 L 1879 1308" stroke-miterlimit="10"/></g><g transform="translate(-190,-303) scale(1,1)"><path fill="#000000" stroke="none" d="M 1868.837325142376 1312.2095177560159 L 1879 1308 L 1868.837325142376 1303.7904822439841 L 1857 1308"/></g><g transform="translate(-190,-303) scale(1,1)"><path fill="none" stroke="#000000" d="M 1868.837325142376 1312.2095177560159 L 1879 1308 L 1868.837325142376 1303.7904822439841 L 1857 1308 L 1868.837325142376 1312.2095177560159" stroke-miterlimit="10"/></g><g transform="translate(-190,-303) scale(1,1)"><g><path fill="none" stroke="none"/><text fill="#000000" stroke="none" font-family="Arial" font-size="13px" font-style="normal" font-weight="normal" text-decoration="none" x="1744.5" y="1299.5">+segments</text></g></g><g transform="translate(-190,-303) scale(1,1)"><g><path fill="none" stroke="none"/><text fill="#000000" stroke="none" font-family="Arial" font-size="13px" font-style="normal" font-weight="normal" text-decoration="none" x="1769.470458984375" y="1326.5">*</text></g></g><g transform="translate(-190,-303) scale(1,1)"><g><path fill="none" stroke="none"/><text fill="#000000" stroke="none" font-family="Arial" font-size="13px" font-style="normal" font-weight="normal" text-decoration="none" x="1853.5" y="1326.5">1</text></g></g></g></svg>