<svg version="1.1" xmlns="http://www.w3.org/2000/svg" xmlns:xlink="http://www.w3.org/1999/xlink" width="2435.24609375" height="1356"><defs/><g><g transform="translate(-69,-62) scale(1,1)"><rect fill="#C0C0C0" stroke="none" x="86" y="332" width="262.24609375" height="56" opacity="0.2"/></g><g transform="translate(-69,-62) scale(1,1)"><rect fill="#ffffff" stroke="none" x="79" y="325" width="262.24609375" height="56"/></g><g transform="translate(-69,-62) scale(1,1)"><path fill="none" stroke="#000000" d="M 79 325 L 341.24609375 325 L 341.24609375 381 L 79 381 L 79 325 Z Z" stroke-miterlimit="10"/></g><g transform="translate(-69,-62) scale(1,1)"><g><path fill="none" stroke="none"/><text fill="#000000" stroke="none" font-family="Arial" font-size="13px" font-style="italic" font-weight="bold" text-decoration="none" x="171.4658203125" y="344.5">FlagwindMap</text></g></g><g transform="translate(-69,-62) scale(1,1)"><rect fill="#C0C0C0" stroke="none" x="519" y="327" width="262.24609375" height="56" opacity="0.2"/></g><g transform="translate(-69,-62) scale(1,1)"><rect fill="#ffffff" stroke="none" x="512" y="320" width="262.24609375" height="56"/></g><g transform="translate(-69,-62) scale(1,1)"><path fill="none" stroke="#000000" d="M 512 320 L 774.24609375 320 L 774.24609375 376 L 512 376 L 512 320 Z Z" stroke-miterlimit="10"/></g><g transform="translate(-69,-62) scale(1,1)"><g><path fill="none" stroke="none"/><text fill="#000000" stroke="none" font-family="Arial" font-size="13px" font-style="normal" font-weight="bold" text-decoration="none" x="578.449951171875" y="339.5">FlagwindFeatureLayer</text></g></g><g transform="translate(-69,-62) scale(1,1)"><rect fill="#C0C0C0" stroke="none" x="86" y="585" width="262.24609375" height="56" opacity="0.2"/></g><g transform="translate(-69,-62) scale(1,1)"><rect fill="#ffffff" stroke="none" x="79" y="578" width="262.24609375" height="56"/></g><g transform="translate(-69,-62) scale(1,1)"><path fill="none" stroke="#000000" d="M 79 578 L 341.24609375 578 L 341.24609375 634 L 79 634 L 79 578 Z Z" stroke-miterlimit="10"/></g><g transform="translate(-69,-62) scale(1,1)"><g><path fill="none" stroke="none"/><text fill="#000000" stroke="none" font-family="Arial" font-size="13px" font-style="italic" font-weight="bold" text-decoration="none" x="153.8193359375" y="597.5">FlagwindTiledLayer</text></g></g><g transform="translate(-69,-62) scale(1,1)"><rect fill="#C0C0C0" stroke="none" x="887" y="327" width="262.24609375" height="56" opacity="0.2"/></g><g transform="translate(-69,-62) scale(1,1)"><rect fill="#ffffff" stroke="none" x="880" y="320" width="262.24609375" height="56"/></g><g transform="translate(-69,-62) scale(1,1)"><path fill="none" stroke="#000000" d="M 880 320 L 1142.24609375 320 L 1142.24609375 376 L 880 376 L 880 320 Z Z" stroke-miterlimit="10"/></g><g transform="translate(-69,-62) scale(1,1)"><g><path fill="none" stroke="none"/><text fill="#000000" stroke="none" font-family="Arial" font-size="13px" font-style="normal" font-weight="bold" text-decoration="none" x="942.476318359375" y="339.5">FlagwindBusinessLayer</text></g></g><g transform="translate(-69,-62) scale(1,1)"><path fill="#C0C0C0" stroke="none" d="M 257.623046875 1190.5 C 257.623046875 1181.9395856 264.562632475 1175 273.123046875 1175 C 281.683461275 1175 288.623046875 1181.9395856 288.623046875 1190.5 C 288.623046875 1199.0604144 281.683461275 1206 273.123046875 1206 C 264.562632475 1206 257.623046875 1199.0604144 257.623046875 1190.5 Z" opacity="0.2"/></g><g transform="translate(-69,-62) scale(1,1)"><path fill="#ffffff" stroke="none" d="M 250.623046875 1183.5 C 250.623046875 1174.9395856 257.562632475 1168 266.123046875 1168 C 274.683461275 1168 281.623046875 1174.9395856 281.623046875 1183.5 C 281.623046875 1192.0604144 274.683461275 1199 266.123046875 1199 C 257.562632475 1199 250.623046875 1192.0604144 250.623046875 1183.5 Z"/></g><g transform="translate(-69,-62) scale(1,1)"><path fill="none" stroke="#000000" d="M 250.623046875 1183.5 C 250.623046875 1174.9395856 257.562632475 1168 266.123046875 1168 C 274.683461275 1168 281.623046875 1174.9395856 281.623046875 1183.5 C 281.623046875 1192.0604144 274.683461275 1199 266.123046875 1199 C 257.562632475 1199 250.623046875 1192.0604144 250.623046875 1183.5 Z" stroke-miterlimit="10"/></g><g transform="translate(-69,-62) scale(1,1)"><g><path fill="none" stroke="none"/><text fill="#000000" stroke="none" font-family="Arial" font-size="13px" font-style="normal" font-weight="bold" text-decoration="none" x="210.844482421875" y="1218.5">IFlagwindEditLayer</text></g></g><g transform="translate(-69,-62) scale(1,1)"><rect fill="#C0C0C0" stroke="none" x="2239" y="1295" width="262.24609375" height="56" opacity="0.2"/></g><g transform="translate(-69,-62) scale(1,1)"><rect fill="#ffffff" stroke="none" x="2232" y="1288" width="262.24609375" height="56"/></g><g transform="translate(-69,-62) scale(1,1)"><path fill="none" stroke="#000000" d="M 2232 1288 L 2494.24609375 1288 L 2494.24609375 1344 L 2232 1344 L 2232 1288 Z Z" stroke-miterlimit="10"/></g><g transform="translate(-69,-62) scale(1,1)"><g><path fill="none" stroke="none"/><text fill="#000000" stroke="none" font-family="Arial" font-size="13px" font-style="normal" font-weight="bold" text-decoration="none" x="2321.098388671875" y="1307.5">TrackSegment</text></g></g><g transform="translate(-69,-62) scale(1,1)"><rect fill="#C0C0C0" stroke="none" x="1766" y="1295" width="262.24609375" height="56" opacity="0.2"/></g><g transform="translate(-69,-62) scale(1,1)"><rect fill="#ffffff" stroke="none" x="1759" y="1288" width="262.24609375" height="56"/></g><g transform="translate(-69,-62) scale(1,1)"><path fill="none" stroke="#000000" d="M 1759 1288 L 2021.24609375 1288 L 2021.24609375 1344 L 1759 1344 L 1759 1288 Z Z" stroke-miterlimit="10"/></g><g transform="translate(-69,-62) scale(1,1)"><g><path fill="none" stroke="none"/><text fill="#000000" stroke="none" font-family="Arial" font-size="13px" font-style="normal" font-weight="bold" text-decoration="none" x="1861.8251953125" y="1307.5">TrackLine</text></g></g><g transform="translate(-69,-62) scale(1,1)"><rect fill="#C0C0C0" stroke="none" x="1031" y="903" width="262.24609375" height="56" opacity="0.2"/></g><g transform="translate(-69,-62) scale(1,1)"><rect fill="#ffffff" stroke="none" x="1024" y="896" width="262.24609375" height="56"/></g><g transform="translate(-69,-62) scale(1,1)"><path fill="none" stroke="#000000" d="M 1024 896 L 1286.24609375 896 L 1286.24609375 952 L 1024 952 L 1024 896 Z Z" stroke-miterlimit="10"/></g><g transform="translate(-69,-62) scale(1,1)"><g><path fill="none" stroke="none"/><text fill="#000000" stroke="none" font-family="Arial" font-size="13px" font-style="normal" font-weight="bold" text-decoration="none" x="1094.785400390625" y="915.5">FlagwindGroupLayer</text></g></g><g transform="translate(-69,-62) scale(1,1)"><rect fill="#C0C0C0" stroke="none" x="1766" y="711" width="262.24609375" height="56" opacity="0.2"/></g><g transform="translate(-69,-62) scale(1,1)"><rect fill="#ffffff" stroke="none" x="1759" y="704" width="262.24609375" height="56"/></g><g transform="translate(-69,-62) scale(1,1)"><path fill="none" stroke="#000000" d="M 1759 704 L 2021.24609375 704 L 2021.24609375 760 L 1759 760 L 1759 704 Z Z" stroke-miterlimit="10"/></g><g transform="translate(-69,-62) scale(1,1)"><g><path fill="none" stroke="none"/><text fill="#000000" stroke="none" font-family="Arial" font-size="13px" font-style="normal" font-weight="bold" text-decoration="none" x="1830.505859375" y="723.5">FlagwindRouteLayer</text></g></g><g transform="translate(-69,-62) scale(1,1)"><rect fill="#C0C0C0" stroke="none" x="1374" y="1023" width="262.24609375" height="56" opacity="0.2"/></g><g transform="translate(-69,-62) scale(1,1)"><rect fill="#ffffff" stroke="none" x="1367" y="1016" width="262.24609375" height="56"/></g><g transform="translate(-69,-62) scale(1,1)"><path fill="none" stroke="#000000" d="M 1367 1016 L 1629.24609375 1016 L 1629.24609375 1072 L 1367 1072 L 1367 1016 Z Z" stroke-miterlimit="10"/></g><g transform="translate(-69,-62) scale(1,1)"><g><path fill="none" stroke="none"/><text fill="#000000" stroke="none" font-family="Arial" font-size="13px" font-style="normal" font-weight="bold" text-decoration="none" x="1439.842041015625" y="1035.5">FlagwindTrackLayer</text></g></g><g transform="translate(-69,-62) scale(1,1)"><path fill="#C0C0C0" stroke="none" d="M 859.3154296875 606.5 C 859.3154296875 597.9395856 866.2550152875 591 874.8154296875 591 C 883.3758440875 591 890.3154296875 597.9395856 890.3154296875 606.5 C 890.3154296875 615.0604144 883.3758440875 622 874.8154296875 622 C 866.2550152875 622 859.3154296875 615.0604144 859.3154296875 606.5 Z" opacity="0.2"/></g><g transform="translate(-69,-62) scale(1,1)"><path fill="#0cda0c" stroke="none" d="M 852.3154296875 599.5 C 852.3154296875 590.9395856 859.2550152875 584 867.8154296875 584 C 876.3758440875 584 883.3154296875 590.9395856 883.3154296875 599.5 C 883.3154296875 608.0604144 876.3758440875 615 867.8154296875 615 C 859.2550152875 615 852.3154296875 608.0604144 852.3154296875 599.5 Z"/></g><g transform="translate(-69,-62) scale(1,1)"><path fill="none" stroke="#000000" d="M 852.3154296875 599.5 C 852.3154296875 590.9395856 859.2550152875 584 867.8154296875 584 C 876.3758440875 584 883.3154296875 590.9395856 883.3154296875 599.5 C 883.3154296875 608.0604144 876.3758440875 615 867.8154296875 615 C 859.2550152875 615 852.3154296875 608.0604144 852.3154296875 599.5 Z" stroke-miterlimit="10"/></g><g transform="translate(-69,-62) scale(1,1)"><g><path fill="none" stroke="none"/><text fill="#000000" stroke="none" font-family="Arial" font-size="13px" font-style="normal" font-weight="bold" text-decoration="none" x="823.7373046875" y="634.5">IFlagwindLayer</text></g></g><g transform="translate(-69,-62) scale(1,1)"><path fill="#C0C0C0" stroke="none" d="M 630.818603515625 934.5 C 630.818603515625 925.9395856 637.758189115625 919 646.318603515625 919 C 654.879017915625 919 661.818603515625 925.9395856 661.818603515625 934.5 C 661.818603515625 943.0604144 654.879017915625 950 646.318603515625 950 C 637.758189115625 950 630.818603515625 943.0604144 630.818603515625 934.5 Z" opacity="0.2"/></g><g transform="translate(-69,-62) scale(1,1)"><path fill="#00a9ff" stroke="none" d="M 623.818603515625 927.5 C 623.818603515625 918.9395856 630.758189115625 912 639.318603515625 912 C 647.879017915625 912 654.818603515625 918.9395856 654.818603515625 927.5 C 654.818603515625 936.0604144 647.879017915625 943 639.318603515625 943 C 630.758189115625 943 623.818603515625 936.0604144 623.818603515625 927.5 Z"/></g><g transform="translate(-69,-62) scale(1,1)"><path fill="none" stroke="#000000" d="M 623.818603515625 927.5 C 623.818603515625 918.9395856 630.758189115625 912 639.318603515625 912 C 647.879017915625 912 654.818603515625 918.9395856 654.818603515625 927.5 C 654.818603515625 936.0604144 647.879017915625 943 639.318603515625 943 C 630.758189115625 943 623.818603515625 936.0604144 623.818603515625 927.5 Z" stroke-miterlimit="10"/></g><g transform="translate(-69,-62) scale(1,1)"><g><path fill="none" stroke="none"/><text fill="#000000" stroke="none" font-family="Arial" font-size="13px" font-style="normal" font-weight="bold" text-decoration="none" x="577.171875" y="962.5">IFlagwindSingleLayer</text></g></g><g transform="translate(-69,-62) scale(1,1)"><path fill="#C0C0C0" stroke="none" d="M 1490.121337890625 606.5 C 1490.121337890625 597.9395856 1497.060923490625 591 1505.621337890625 591 C 1514.181752290625 591 1521.121337890625 597.9395856 1521.121337890625 606.5 C 1521.121337890625 615.0604144 1514.181752290625 622 1505.621337890625 622 C 1497.060923490625 622 1490.121337890625 615.0604144 1490.121337890625 606.5 Z" opacity="0.2"/></g><g transform="translate(-69,-62) scale(1,1)"><path fill="#00a9ff" stroke="none" d="M 1483.121337890625 599.5 C 1483.121337890625 590.9395856 1490.060923490625 584 1498.621337890625 584 C 1507.181752290625 584 1514.121337890625 590.9395856 1514.121337890625 599.5 C 1514.121337890625 608.0604144 1507.181752290625 615 1498.621337890625 615 C 1490.060923490625 615 1483.121337890625 608.0604144 1483.121337890625 599.5 Z"/></g><g transform="translate(-69,-62) scale(1,1)"><path fill="none" stroke="#000000" d="M 1483.121337890625 599.5 C 1483.121337890625 590.9395856 1490.060923490625 584 1498.621337890625 584 C 1507.181752290625 584 1514.121337890625 590.9395856 1514.121337890625 599.5 C 1514.121337890625 608.0604144 1507.181752290625 615 1498.621337890625 615 C 1490.060923490625 615 1483.121337890625 608.0604144 1483.121337890625 599.5 Z" stroke-miterlimit="10"/></g><g transform="translate(-69,-62) scale(1,1)"><g><path fill="none" stroke="none"/><text fill="#000000" stroke="none" font-family="Arial" font-size="13px" font-style="normal" font-weight="bold" text-decoration="none" x="1428.530517578125" y="634.5">IFlagwindCombineLayer</text></g></g><g transform="translate(-69,-62) scale(1,1)"><path fill="none" stroke="#000000" d="M 659 911 L 847 641" stroke-miterlimit="10"/></g><g transform="translate(-69,-62) scale(1,1)"><path fill="#FFFFFF" stroke="none" d="M 842.294818522275 662.4909578023334 L 847 641 L 828.4765322741634 652.8693362666113"/></g><g transform="translate(-69,-62) scale(1,1)"><path fill="none" stroke="#000000" d="M 842.294818522275 662.4909578023334 L 847 641 L 828.4765322741634 652.8693362666113 L 842.294818522275 662.4909578023334" stroke-miterlimit="10"/></g><g transform="translate(-69,-62) scale(1,1)"><path fill="none" stroke="#000000" d="M 308 1167 L 597 969" stroke-miterlimit="10"/></g><g transform="translate(-69,-62) scale(1,1)"><path fill="#FFFFFF" stroke="none" d="M 584.9908607807968 987.433137964378 L 597 969 L 575.4740593687292 973.542453075047"/></g><g transform="translate(-69,-62) scale(1,1)"><path fill="none" stroke="#000000" d="M 584.9908607807968 987.433137964378 L 597 969 L 575.4740593687292 973.542453075047 L 584.9908607807968 987.433137964378" stroke-miterlimit="10"/></g><g transform="translate(-69,-62) scale(1,1)"><path fill="#C0C0C0" stroke="none" d="M 2350.623046875 918.5 C 2350.623046875 909.9395856 2357.562632475 903 2366.123046875 903 C 2374.683461275 903 2381.623046875 909.9395856 2381.623046875 918.5 C 2381.623046875 927.0604144 2374.683461275 934 2366.123046875 934 C 2357.562632475 934 2350.623046875 927.0604144 2350.623046875 918.5 Z" opacity="0.2"/></g><g transform="translate(-69,-62) scale(1,1)"><path fill="#ffffff" stroke="none" d="M 2343.623046875 911.5 C 2343.623046875 902.9395856 2350.562632475 896 2359.123046875 896 C 2367.683461275 896 2374.623046875 902.9395856 2374.623046875 911.5 C 2374.623046875 920.0604144 2367.683461275 927 2359.123046875 927 C 2350.562632475 927 2343.623046875 920.0604144 2343.623046875 911.5 Z"/></g><g transform="translate(-69,-62) scale(1,1)"><path fill="none" stroke="#000000" d="M 2343.623046875 911.5 C 2343.623046875 902.9395856 2350.562632475 896 2359.123046875 896 C 2367.683461275 896 2374.623046875 902.9395856 2374.623046875 911.5 C 2374.623046875 920.0604144 2367.683461275 927 2359.123046875 927 C 2350.562632475 927 2343.623046875 920.0604144 2343.623046875 911.5 Z" stroke-miterlimit="10"/></g><g transform="translate(-69,-62) scale(1,1)"><g><path fill="none" stroke="none"/><text fill="#000000" stroke="none" font-family="Arial" font-size="13px" font-style="normal" font-weight="bold" text-decoration="none" x="2316.13671875" y="946.5">IFlagwindDraw</text></g></g><g transform="translate(-69,-62) scale(1,1)"><path fill="#C0C0C0" stroke="none" d="M 1005.623046875 1190.5 C 1005.623046875 1181.9395856 1012.562632475 1175 1021.123046875 1175 C 1029.683461275 1175 1036.623046875 1181.9395856 1036.623046875 1190.5 C 1036.623046875 1199.0604144 1029.683461275 1206 1021.123046875 1206 C 1012.562632475 1206 1005.623046875 1199.0604144 1005.623046875 1190.5 Z" opacity="0.2"/></g><g transform="translate(-69,-62) scale(1,1)"><path fill="#ffffff" stroke="none" d="M 998.623046875 1183.5 C 998.623046875 1174.9395856 1005.562632475 1168 1014.123046875 1168 C 1022.683461275 1168 1029.623046875 1174.9395856 1029.623046875 1183.5 C 1029.623046875 1192.0604144 1022.683461275 1199 1014.123046875 1199 C 1005.562632475 1199 998.623046875 1192.0604144 998.623046875 1183.5 Z"/></g><g transform="translate(-69,-62) scale(1,1)"><path fill="none" stroke="#000000" d="M 998.623046875 1183.5 C 998.623046875 1174.9395856 1005.562632475 1168 1014.123046875 1168 C 1022.683461275 1168 1029.623046875 1174.9395856 1029.623046875 1183.5 C 1029.623046875 1192.0604144 1022.683461275 1199 1014.123046875 1199 C 1005.562632475 1199 998.623046875 1192.0604144 998.623046875 1183.5 Z" stroke-miterlimit="10"/></g><g transform="translate(-69,-62) scale(1,1)"><g><path fill="none" stroke="none"/><text fill="#000000" stroke="none" font-family="Arial" font-size="13px" font-style="normal" font-weight="bold" text-decoration="none" x="945.469970703125" y="1218.5">IFlagwindLocationLayer</text></g></g><g transform="translate(-69,-62) scale(1,1)"><path fill="none" stroke="#000000" d="M 972 1167 L 681 969" stroke-miterlimit="10"/></g><g transform="translate(-69,-62) scale(1,1)"><path fill="#FFFFFF" stroke="none" d="M 702.5404180889739 973.4732972796594 L 681 969 L 693.0682768595963 987.3944745410173"/></g><g transform="translate(-69,-62) scale(1,1)"><path fill="none" stroke="#000000" d="M 702.5404180889739 973.4732972796594 L 681 969 L 693.0682768595963 987.3944745410173 L 702.5404180889739 973.4732972796594" stroke-miterlimit="10"/></g><g transform="translate(-69,-62) scale(1,1)"><path fill="none" stroke="#000000" d="M 1534 1015 L 1854 761" stroke-miterlimit="10"/></g><g transform="translate(-69,-62) scale(1,1)"><path fill="none" stroke="#000000" d="M 1848.657154575084 770.6153004511275 L 1854 761 L 1843.422993617072 764.0210819213487" stroke-miterlimit="10"/></g><g transform="translate(-69,-62) scale(1,1)"><rect fill="#C0C0C0" stroke="none" x="511" y="111" width="262.24609375" height="56" opacity="0.2"/></g><g transform="translate(-69,-62) scale(1,1)"><rect fill="#ffffff" stroke="none" x="504" y="104" width="262.24609375" height="56"/></g><g transform="translate(-69,-62) scale(1,1)"><path fill="none" stroke="#000000" d="M 504 104 L 766.24609375 104 L 766.24609375 160 L 504 160 L 504 104 Z Z" stroke-miterlimit="10"/></g><g transform="translate(-69,-62) scale(1,1)"><g><path fill="none" stroke="none"/><text fill="#000000" stroke="none" font-family="Arial" font-size="16px" font-style="normal" font-weight="bold" text-decoration="none" x="583.099609375" y="126.5">EsriPointLayer</text></g></g><g transform="translate(-69,-62) scale(1,1)"><rect fill="#C0C0C0" stroke="none" x="891" y="111" width="262.24609375" height="56" opacity="0.2"/></g><g transform="translate(-69,-62) scale(1,1)"><rect fill="#ffffff" stroke="none" x="884" y="104" width="262.24609375" height="56"/></g><g transform="translate(-69,-62) scale(1,1)"><path fill="none" stroke="#000000" d="M 884 104 L 1146.24609375 104 L 1146.24609375 160 L 884 160 L 884 104 Z Z" stroke-miterlimit="10"/></g><g transform="translate(-69,-62) scale(1,1)"><g><path fill="none" stroke="none"/><text fill="#000000" stroke="none" font-family="Arial" font-size="16px" font-style="normal" font-weight="bold" text-decoration="none" x="953.318359375" y="126.5">EsriPolylineLayer</text></g></g><g transform="translate(-69,-62) scale(1,1)"><rect fill="#C0C0C0" stroke="none" x="1271" y="111" width="262.24609375" height="56" opacity="0.2"/></g><g transform="translate(-69,-62) scale(1,1)"><rect fill="#ffffff" stroke="none" x="1264" y="104" width="262.24609375" height="56"/></g><g transform="translate(-69,-62) scale(1,1)"><path fill="none" stroke="#000000" d="M 1264 104 L 1526.24609375 104 L 1526.24609375 160 L 1264 160 L 1264 104 Z Z" stroke-miterlimit="10"/></g><g transform="translate(-69,-62) scale(1,1)"><g><path fill="none" stroke="none"/><text fill="#000000" stroke="none" font-family="Arial" font-size="16px" font-style="normal" font-weight="bold" text-decoration="none" x="1332.423828125" y="126.5">EsriPolygonLayer</text></g></g><g transform="translate(-69,-62) scale(1,1)"><path fill="none" stroke="#000000" d="M 685 161 L 961 319" stroke-miterlimit="10"/></g><g transform="translate(-69,-62) scale(1,1)"><path fill="#FFFFFF" stroke="none" d="M 939.1778139364455 316.2085495871121 L 961 319 L 947.5432377704451 301.59553073784707"/></g><g transform="translate(-69,-62) scale(1,1)"><path fill="none" stroke="#000000" d="M 939.1778139364455 316.2085495871121 L 961 319 L 947.5432377704451 301.59553073784707 L 939.1778139364455 316.2085495871121" stroke-miterlimit="10"/></g><g transform="translate(-69,-62) scale(1,1)"><path fill="none" stroke="#000000" d="M 1014 161 L 1012 319" stroke-miterlimit="10"/></g><g transform="translate(-69,-62) scale(1,1)"><path fill="#FFFFFF" stroke="none" d="M 1003.8389011989856 298.5697169290271 L 1012 319 L 1020.675623396915 298.7828399948237"/></g><g transform="translate(-69,-62) scale(1,1)"><path fill="none" stroke="#000000" d="M 1003.8389011989856 298.5697169290271 L 1012 319 L 1020.675623396915 298.7828399948237 L 1003.8389011989856 298.5697169290271" stroke-miterlimit="10"/></g><g transform="translate(-69,-62) scale(1,1)"><path fill="none" stroke="#000000" d="M 1343 161 L 1063 319" stroke-miterlimit="10"/></g><g transform="translate(-69,-62) scale(1,1)"><path fill="#FFFFFF" stroke="none" d="M 1076.5640852045854 301.67904181164477 L 1063 319 L 1084.839023620389 316.3434896371197"/></g><g transform="translate(-69,-62) scale(1,1)"><path fill="none" stroke="#000000" d="M 1076.5640852045854 301.67904181164477 L 1063 319 L 1084.839023620389 316.3434896371197 L 1076.5640852045854 301.67904181164477" stroke-miterlimit="10"/></g><g transform="translate(-69,-62) scale(1,1)"><rect fill="#C0C0C0" stroke="none" x="1766" y="415" width="262.24609375" height="47" opacity="0.2"/></g><g transform="translate(-69,-62) scale(1,1)"><rect fill="#ffffff" stroke="none" x="1759" y="408" width="262.24609375" height="47"/></g><g transform="translate(-69,-62) scale(1,1)"><path fill="none" stroke="#000000" d="M 1759 408 L 2021.24609375 408 L 2021.24609375 455 L 1759 455 L 1759 408 Z Z" stroke-miterlimit="10"/></g><g transform="translate(-69,-62) scale(1,1)"><g><path fill="none" stroke="none"/><text fill="#000000" stroke="none" font-family="Arial" font-size="16px" font-style="normal" font-weight="bold" text-decoration="none" x="1834.986328125" y="430.5">EsriRouteLayer</text></g></g><g transform="translate(-69,-62) scale(1,1)"><path fill="none" stroke="#000000" d="M 1890 456 L 1890 703" stroke-miterlimit="10"/></g><g transform="translate(-69,-62) scale(1,1)"><path fill="#FFFFFF" stroke="none" d="M 1881.580964487968 682.6746502847517 L 1890 703 L 1898.419035512032 682.6746502847517"/></g><g transform="translate(-69,-62) scale(1,1)"><path fill="none" stroke="#000000" d="M 1881.580964487968 682.6746502847517 L 1890 703 L 1898.419035512032 682.6746502847517 L 1881.580964487968 682.6746502847517" stroke-miterlimit="10"/></g><g transform="translate(-69,-62) scale(1,1)"><rect fill="#C0C0C0" stroke="none" x="86" y="838" width="262.24609375" height="56" opacity="0.2"/></g><g transform="translate(-69,-62) scale(1,1)"><rect fill="#ffffff" stroke="none" x="79" y="831" width="262.24609375" height="56"/></g><g transform="translate(-69,-62) scale(1,1)"><path fill="none" stroke="#000000" d="M 79 831 L 341.24609375 831 L 341.24609375 887 L 79 887 L 79 831 Z Z" stroke-miterlimit="10"/></g><g transform="translate(-69,-62) scale(1,1)"><g><path fill="none" stroke="none"/><text fill="#000000" stroke="none" font-family="Arial" font-size="16px" font-style="normal" font-weight="bold" text-decoration="none" x="159.291015625" y="853.5">EsriTiledLayer</text></g></g><g transform="translate(-69,-62) scale(1,1)"><rect fill="#C0C0C0" stroke="none" x="1367" y="1351" width="262.24609375" height="56" opacity="0.2"/></g><g transform="translate(-69,-62) scale(1,1)"><rect fill="#ffffff" stroke="none" x="1360" y="1344" width="262.24609375" height="56"/></g><g transform="translate(-69,-62) scale(1,1)"><path fill="none" stroke="#000000" d="M 1360 1344 L 1622.24609375 1344 L 1622.24609375 1400 L 1360 1400 L 1360 1344 Z Z" stroke-miterlimit="10"/></g><g transform="translate(-69,-62) scale(1,1)"><g><path fill="none" stroke="none"/><text fill="#000000" stroke="none" font-family="Arial" font-size="16px" font-style="normal" font-weight="bold" text-decoration="none" x="1437.630859375" y="1366.5">EsriTrackLayer</text></g></g><g transform="translate(-69,-62) scale(1,1)"><path fill="none" stroke="#000000" d="M 1492 1343 L 1497 1073" stroke-miterlimit="10"/></g><g transform="translate(-69,-62) scale(1,1)"><path fill="#FFFFFF" stroke="none" d="M 1505.0412614480051 1093.4777468078114 L 1497 1073 L 1488.206076867954 1093.1659841304029"/></g><g transform="translate(-69,-62) scale(1,1)"><path fill="none" stroke="#000000" d="M 1505.0412614480051 1093.4777468078114 L 1497 1073 L 1488.206076867954 1093.1659841304029 L 1505.0412614480051 1093.4777468078114" stroke-miterlimit="10"/></g><g transform="translate(-69,-62) scale(1,1)"><path fill="none" stroke="#000000" d="M 210 830 L 210 635" stroke-miterlimit="10"/></g><g transform="translate(-69,-62) scale(1,1)"><path fill="#FFFFFF" stroke="none" d="M 218.41903551203197 655.3253497152483 L 210 635 L 201.58096448796803 655.3253497152483"/></g><g transform="translate(-69,-62) scale(1,1)"><path fill="none" stroke="#000000" d="M 218.41903551203197 655.3253497152483 L 210 635 L 201.58096448796803 655.3253497152483 L 218.41903551203197 655.3253497152483" stroke-miterlimit="10"/></g><g transform="translate(-69,-62) scale(1,1)"><rect fill="#C0C0C0" stroke="none" x="142" y="1359" width="262.24609375" height="56" opacity="0.2"/></g><g transform="translate(-69,-62) scale(1,1)"><rect fill="#ffffff" stroke="none" x="135" y="1352" width="262.24609375" height="56"/></g><g transform="translate(-69,-62) scale(1,1)"><path fill="none" stroke="#000000" d="M 135 1352 L 397.24609375 1352 L 397.24609375 1408 L 135 1408 L 135 1352 Z Z" stroke-miterlimit="10"/></g><g transform="translate(-69,-62) scale(1,1)"><g><path fill="none" stroke="none"/><text fill="#000000" stroke="none" font-family="Arial" font-size="16px" font-style="normal" font-weight="bold" text-decoration="none" x="218.548828125" y="1374.5">EsriEditLayer</text></g></g><g transform="translate(-69,-62) scale(1,1)"><rect fill="#C0C0C0" stroke="none" x="2235" y="1079" width="262.24609375" height="56" opacity="0.2"/></g><g transform="translate(-69,-62) scale(1,1)"><rect fill="#ffffff" stroke="none" x="2228" y="1072" width="262.24609375" height="56"/></g><g transform="translate(-69,-62) scale(1,1)"><path fill="none" stroke="#000000" d="M 2228 1072 L 2490.24609375 1072 L 2490.24609375 1128 L 2228 1128 L 2228 1072 Z Z" stroke-miterlimit="10"/></g><g transform="translate(-69,-62) scale(1,1)"><g><path fill="none" stroke="none"/><text fill="#000000" stroke="none" font-family="Arial" font-size="16px" font-style="normal" font-weight="bold" text-decoration="none" x="2326.677734375" y="1094.5">EsriDraw</text></g></g><g transform="translate(-69,-62) scale(1,1)"><path fill="none" stroke="#000000" d="M 2359 1071 L 2359 953" stroke-miterlimit="10"/></g><g transform="translate(-69,-62) scale(1,1)"><path fill="#FFFFFF" stroke="none" d="M 2367.4190355120318 973.3253497152483 L 2359 953 L 2350.5809644879682 973.3253497152483"/></g><g transform="translate(-69,-62) scale(1,1)"><path fill="none" stroke="#000000" d="M 2367.4190355120318 973.3253497152483 L 2359 953 L 2350.5809644879682 973.3253497152483 L 2367.4190355120318 973.3253497152483" stroke-miterlimit="10"/></g><g transform="translate(-69,-62) scale(1,1)"><path fill="#C0C0C0" stroke="none" d="M 631.623046875 1190.5 C 631.623046875 1181.9395856 638.562632475 1175 647.123046875 1175 C 655.683461275 1175 662.623046875 1181.9395856 662.623046875 1190.5 C 662.623046875 1199.0604144 655.683461275 1206 647.123046875 1206 C 638.562632475 1206 631.623046875 1199.0604144 631.623046875 1190.5 Z" opacity="0.2"/></g><g transform="translate(-69,-62) scale(1,1)"><path fill="#ffffff" stroke="none" d="M 624.623046875 1183.5 C 624.623046875 1174.9395856 631.562632475 1168 640.123046875 1168 C 648.683461275 1168 655.623046875 1174.9395856 655.623046875 1183.5 C 655.623046875 1192.0604144 648.683461275 1199 640.123046875 1199 C 631.562632475 1199 624.623046875 1192.0604144 624.623046875 1183.5 Z"/></g><g transform="translate(-69,-62) scale(1,1)"><path fill="none" stroke="#000000" d="M 624.623046875 1183.5 C 624.623046875 1174.9395856 631.562632475 1168 640.123046875 1168 C 648.683461275 1168 655.623046875 1174.9395856 655.623046875 1183.5 C 655.623046875 1192.0604144 648.683461275 1199 640.123046875 1199 C 631.562632475 1199 624.623046875 1192.0604144 624.623046875 1183.5 Z" stroke-miterlimit="10"/></g><g transform="translate(-69,-62) scale(1,1)"><g><path fill="none" stroke="none"/><text fill="#000000" stroke="none" font-family="Arial" font-size="13px" font-style="normal" font-weight="bold" text-decoration="none" x="569.67041015625" y="1218.5">IFlagwindHeatmapLayer</text></g></g><g transform="translate(-69,-62) scale(1,1)"><path fill="none" stroke="#000000" d="M 640 1167 L 639 969" stroke-miterlimit="10"/></g><g transform="translate(-69,-62) scale(1,1)"><path fill="#FFFFFF" stroke="none" d="M 647.5215801115813 989.2825706556615 L 639 969 L 630.6837238328101 989.3676103338371"/></g><g transform="translate(-69,-62) scale(1,1)"><path fill="none" stroke="#000000" d="M 647.5215801115813 989.2825706556615 L 639 969 L 630.6837238328101 989.3676103338371 L 647.5215801115813 989.2825706556615" stroke-miterlimit="10"/></g><g transform="translate(-69,-62) scale(1,1)"><rect fill="#C0C0C0" stroke="none" x="516" y="1351" width="262.24609375" height="56" opacity="0.2"/></g><g transform="translate(-69,-62) scale(1,1)"><rect fill="#ffffff" stroke="none" x="509" y="1344" width="262.24609375" height="56"/></g><g transform="translate(-69,-62) scale(1,1)"><path fill="none" stroke="#000000" d="M 509 1344 L 771.24609375 1344 L 771.24609375 1400 L 509 1400 L 509 1344 Z Z" stroke-miterlimit="10"/></g><g transform="translate(-69,-62) scale(1,1)"><g><path fill="none" stroke="none"/><text fill="#000000" stroke="none" font-family="Arial" font-size="16px" font-style="normal" font-weight="bold" text-decoration="none" x="573.873046875" y="1366.5">EsriHeatmapLayer</text></g></g><g transform="translate(-69,-62) scale(1,1)"><path fill="none" stroke="#000000" d="M 640 1343 L 640 1225" stroke-miterlimit="10"/></g><g transform="translate(-69,-62) scale(1,1)"><path fill="#FFFFFF" stroke="none" d="M 648.419035512032 1245.3253497152482 L 640 1225 L 631.580964487968 1245.3253497152482"/></g><g transform="translate(-69,-62) scale(1,1)"><path fill="none" stroke="#000000" d="M 648.419035512032 1245.3253497152482 L 640 1225 L 631.580964487968 1245.3253497152482 L 648.419035512032 1245.3253497152482" stroke-miterlimit="10"/></g><g transform="translate(-69,-62) scale(1,1)"><rect fill="#C0C0C0" stroke="none" x="890" y="1351" width="262.24609375" height="56" opacity="0.2"/></g><g transform="translate(-69,-62) scale(1,1)"><rect fill="#ffffff" stroke="none" x="883" y="1344" width="262.24609375" height="56"/></g><g transform="translate(-69,-62) scale(1,1)"><path fill="none" stroke="#000000" d="M 883 1344 L 1145.24609375 1344 L 1145.24609375 1400 L 883 1400 L 883 1344 Z Z" stroke-miterlimit="10"/></g><g transform="translate(-69,-62) scale(1,1)"><g><path fill="none" stroke="none"/><text fill="#000000" stroke="none" font-family="Arial" font-size="16px" font-style="normal" font-weight="bold" text-decoration="none" x="950.087890625" y="1366.5">EsriLocationLayer</text></g></g><g transform="translate(-69,-62) scale(1,1)"><path fill="none" stroke="#000000" d="M 1014 1343 L 1014 1225" stroke-miterlimit="10"/></g><g transform="translate(-69,-62) scale(1,1)"><path fill="#FFFFFF" stroke="none" d="M 1022.419035512032 1245.3253497152482 L 1014 1225 L 1005.580964487968 1245.3253497152482"/></g><g transform="translate(-69,-62) scale(1,1)"><path fill="none" stroke="#000000" d="M 1022.419035512032 1245.3253497152482 L 1014 1225 L 1005.580964487968 1245.3253497152482 L 1022.419035512032 1245.3253497152482" stroke-miterlimit="10"/></g><g transform="translate(-69,-62) scale(1,1)"><rect fill="#C0C0C0" stroke="none" x="101" y="79" width="232" height="56" opacity="0.2"/></g><g transform="translate(-69,-62) scale(1,1)"><rect fill="#ffffff" stroke="none" x="94" y="72" width="232" height="56"/></g><g transform="translate(-69,-62) scale(1,1)"><path fill="none" stroke="#000000" d="M 94 72 L 326 72 L 326 128 L 94 128 L 94 72 Z Z" stroke-miterlimit="10"/></g><g transform="translate(-69,-62) scale(1,1)"><g><path fill="none" stroke="none"/><text fill="#000000" stroke="none" font-family="Arial" font-size="16px" font-style="normal" font-weight="bold" text-decoration="none" x="180.66015625" y="94.5">EsriMap</text></g></g><g transform="translate(-69,-62) scale(1,1)"><path fill="none" stroke="#000000" d="M 210 129 L 210 324" stroke-miterlimit="10"/></g><g transform="translate(-69,-62) scale(1,1)"><path fill="#FFFFFF" stroke="none" d="M 201.58096448796803 303.6746502847517 L 210 324 L 218.41903551203197 303.6746502847517"/></g><g transform="translate(-69,-62) scale(1,1)"><path fill="none" stroke="#000000" d="M 201.58096448796803 303.6746502847517 L 210 324 L 218.41903551203197 303.6746502847517 L 201.58096448796803 303.6746502847517" stroke-miterlimit="10"/></g><g transform="translate(-69,-62) scale(1,1)"><rect fill="#C0C0C0" stroke="none" x="1031" y="679" width="262.24609375" height="56" opacity="0.2"/></g><g transform="translate(-69,-62) scale(1,1)"><rect fill="#ffffff" stroke="none" x="1024" y="672" width="262.24609375" height="56"/></g><g transform="translate(-69,-62) scale(1,1)"><path fill="none" stroke="#000000" d="M 1024 672 L 1286.24609375 672 L 1286.24609375 728 L 1024 728 L 1024 672 Z Z" stroke-miterlimit="10"/></g><g transform="translate(-69,-62) scale(1,1)"><g><path fill="none" stroke="none"/><text fill="#000000" stroke="none" font-family="Arial" font-size="13px" font-style="normal" font-weight="bold" text-decoration="none" x="1109.60400390625" y="691.5">EsriGroupLayer</text></g></g><g transform="translate(-69,-62) scale(1,1)"><path fill="none" stroke="#000000" d="M 1155 729 L 1155 895" stroke-miterlimit="10"/></g><g transform="translate(-69,-62) scale(1,1)"><path fill="#FFFFFF" stroke="none" d="M 1146.580964487968 874.6746502847517 L 1155 895 L 1163.419035512032 874.6746502847517"/></g><g transform="translate(-69,-62) scale(1,1)"><path fill="none" stroke="#000000" d="M 1146.580964487968 874.6746502847517 L 1155 895 L 1163.419035512032 874.6746502847517 L 1146.580964487968 874.6746502847517" stroke-miterlimit="10"/></g><g transform="translate(-69,-62) scale(1,1)"><path fill="none" stroke="#000000" d="M 210 577 L 210 382" stroke-miterlimit="10"/></g><g transform="translate(-69,-62) scale(1,1)"><path fill="#000000" stroke="none" d="M 214.209517756016 392.16267485762415 L 210 382 L 205.790482243984 392.16267485762415 L 210 404"/></g><g transform="translate(-69,-62) scale(1,1)"><path fill="none" stroke="#000000" d="M 214.209517756016 392.16267485762415 L 210 382 L 205.790482243984 392.16267485762415 L 210 404 L 214.209517756016 392.16267485762415" stroke-miterlimit="10"/></g><g transform="translate(-69,-62) scale(1,1)"><g><path fill="none" stroke="none"/><text fill="#000000" stroke="none" font-family="Arial" font-size="13px" font-style="normal" font-weight="normal" text-decoration="none" x="157.5" y="557.5">+baseLayers</text></g></g><g transform="translate(-69,-62) scale(1,1)"><g><path fill="none" stroke="none"/><text fill="#000000" stroke="none" font-family="Arial" font-size="13px" font-style="normal" font-weight="normal" text-decoration="none" x="219.470458984375" y="561.5">*</text></g></g><g transform="translate(-69,-62) scale(1,1)"><g><path fill="none" stroke="none"/><text fill="#000000" stroke="none" font-family="Arial" font-size="13px" font-style="normal" font-weight="normal" text-decoration="none" x="218.5" y="409.5">1</text></g></g><g transform="translate(-69,-62) scale(1,1)"><path fill="none" stroke="#000000" d="M 511 350 L 342 351" stroke-miterlimit="10"/></g><g transform="translate(-69,-62) scale(1,1)"><path fill="#000000" stroke="none" d="M 352.13758899750377 346.73042281745717 L 342 351 L 352.18740490359244 355.1493109464417 L 363.999614869537 350.8698247640856"/></g><g transform="translate(-69,-62) scale(1,1)"><path fill="none" stroke="#000000" d="M 352.13758899750377 346.73042281745717 L 342 351 L 352.18740490359244 355.1493109464417 L 363.999614869537 350.8698247640856 L 352.13758899750377 346.73042281745717" stroke-miterlimit="10"/></g><g transform="translate(-69,-62) scale(1,1)"><g><path fill="none" stroke="none"/><text fill="#000000" stroke="none" font-family="Arial" font-size="13px" font-style="normal" font-weight="normal" text-decoration="none" x="382.5" y="370.5">+featureLayers</text></g></g><g transform="translate(-69,-62) scale(1,1)"><path fill="none" stroke="#000000" d="M 266 1351 L 266 1225" stroke-miterlimit="10"/></g><g transform="translate(-69,-62) scale(1,1)"><path fill="#FFFFFF" stroke="none" d="M 274.419035512032 1245.3253497152482 L 266 1225 L 257.580964487968 1245.3253497152482"/></g><g transform="translate(-69,-62) scale(1,1)"><path fill="none" stroke="#000000" d="M 274.419035512032 1245.3253497152482 L 266 1225 L 257.580964487968 1245.3253497152482 L 274.419035512032 1245.3253497152482" stroke-miterlimit="10"/></g><g transform="translate(-69,-62) scale(1,1)"><path fill="none" stroke="#000000" d="M 247 635 L 623.818603515625 920.4350717905405" stroke-miterlimit="10"/></g><g transform="translate(-69,-62) scale(1,1)"><path fill="none" stroke="#000000" d="M 643 377 L 639 912" stroke-miterlimit="10"/></g><g transform="translate(-69,-62) scale(1,1)"><path fill="none" stroke="#000000" d="M 879 348 L 775 348" stroke-miterlimit="10"/></g><g transform="translate(-69,-62) scale(1,1)"><path fill="#FFFFFF" stroke="none" d="M 795.3253497152483 339.580964487968 L 775 348 L 795.3253497152483 356.419035512032"/></g><g transform="translate(-69,-62) scale(1,1)"><path fill="none" stroke="#000000" d="M 795.3253497152483 339.580964487968 L 775 348 L 795.3253497152483 356.419035512032 L 795.3253497152483 339.580964487968" stroke-miterlimit="10"/></g><g transform="translate(-69,-62) scale(1,1)"><path fill="none" stroke="#000000" d="M 1023 928 L 654.818603515625 929.3836251872859" stroke-miterlimit="10"/></g><g transform="translate(-69,-62) scale(1,1)"><path fill="none" stroke="#000000" d="M 1418 612 L 921 612" stroke-miterlimit="10"/></g><g transform="translate(-69,-62) scale(1,1)"><path fill="#FFFFFF" stroke="none" d="M 941.3253497152483 603.580964487968 L 921 612 L 941.3253497152483 620.419035512032"/></g><g transform="translate(-69,-62) scale(1,1)"><path fill="none" stroke="#000000" d="M 941.3253497152483 603.580964487968 L 921 612 L 941.3253497152483 620.419035512032 L 941.3253497152483 603.580964487968" stroke-miterlimit="10"/></g><g transform="translate(-69,-62) scale(1,1)"><path fill="none" stroke="#000000" d="M 1498 1015 L 1498 615" stroke-miterlimit="10"/></g><g transform="translate(-69,-62) scale(1,1)"><path fill="none" stroke="#000000" d="M 1890 1287 L 1890 761" stroke-miterlimit="10"/></g><g transform="translate(-69,-62) scale(1,1)"><path fill="#FFFFFF" stroke="none" d="M 1894.2095177560159 771.1626748576241 L 1890 761 L 1885.7904822439841 771.1626748576241 L 1890 783"/></g><g transform="translate(-69,-62) scale(1,1)"><path fill="none" stroke="#000000" d="M 1894.2095177560159 771.1626748576241 L 1890 761 L 1885.7904822439841 771.1626748576241 L 1890 783 L 1894.2095177560159 771.1626748576241" stroke-miterlimit="10"/></g><g transform="translate(-69,-62) scale(1,1)"><g><path fill="none" stroke="none"/><text fill="#000000" stroke="none" font-family="Arial" font-size="13px" font-style="normal" font-weight="normal" text-decoration="none" x="1841.5" y="1267.5">+trackLines</text></g></g><g transform="translate(-69,-62) scale(1,1)"><g><path fill="none" stroke="none"/><text fill="#000000" stroke="none" font-family="Arial" font-size="13px" font-style="normal" font-weight="normal" text-decoration="none" x="1899.470458984375" y="1271.5">*</text></g></g><g transform="translate(-69,-62) scale(1,1)"><g><path fill="none" stroke="none"/><text fill="#000000" stroke="none" font-family="Arial" font-size="13px" font-style="normal" font-weight="normal" text-decoration="none" x="1898.5" y="788.5">1</text></g></g><g transform="translate(-69,-62) scale(1,1)"><path fill="none" stroke="#000000" d="M 2231 1316 L 2022 1316" stroke-miterlimit="10"/></g><g transform="translate(-69,-62) scale(1,1)"><path fill="#000000" stroke="none" d="M 2032.162674857624 1311.7904822439841 L 2022 1316 L 2032.162674857624 1320.2095177560159 L 2044 1316"/></g><g transform="translate(-69,-62) scale(1,1)"><path fill="none" stroke="#000000" d="M 2032.162674857624 1311.7904822439841 L 2022 1316 L 2032.162674857624 1320.2095177560159 L 2044 1316 L 2032.162674857624 1311.7904822439841" stroke-miterlimit="10"/></g><g transform="translate(-69,-62) scale(1,1)"><g><path fill="none" stroke="none"/><text fill="#000000" stroke="none" font-family="Arial" font-size="13px" font-style="normal" font-weight="normal" text-decoration="none" x="2173.5" y="1336.5">+segments</text></g></g><g transform="translate(-69,-62) scale(1,1)"><g><path fill="none" stroke="none"/><text fill="#000000" stroke="none" font-family="Arial" font-size="13px" font-style="normal" font-weight="normal" text-decoration="none" x="2206.470458984375" y="1309.5">*</text></g></g><g transform="translate(-69,-62) scale(1,1)"><g><path fill="none" stroke="none"/><text fill="#000000" stroke="none" font-family="Arial" font-size="13px" font-style="normal" font-weight="normal" text-decoration="none" x="2039.5" y="1309.5">1</text></g></g></g></svg>